Finding Neverland *2004*[BluRay][1080p][ENG, POL]

General information:
Country: USA, UK 
Release: 4 September 2004 (Venice Film Festival)
Genre: Drama  
Director: Marc Forster
Screenplay: David Magee
Original Music: Jan A.P. Kaczmarek
Cinematography by: Roberto Schaefer
Duration: 1h 41mn
Language: English, Polish
Subtitles: English, Polish
Rating:  - 7.8/10 
81979 votes

Cast:
Johnny Depp ...Sir James Matthew Barrie
Kate Winslet ...Sylvia Llewelyn Davies
Julie Christie ...Mrs. Emma du Maurier
Radha Mitchell ...Mary Ansell Barrie
Dustin Hoffman ...Charles Frohman
Freddie Highmore ...Peter Llewelyn Davies
Joe Prospero ...Jack Llewelyn Davies
Nick Roud ...George Llewelyn Davies
Luke Spill ...Michael Llewelyn Davies
Ian Hart ...Sir Arthur Conan Doyle
Kelly Macdonald ...'Peter Pan'
Mackenzie Crook ...Mr. Jaspers - Usher
Eileen Essell ...Mrs. Snow
Jimmy Gardner ...Mr. Snow
Oliver Fox ...Gilbert Cannan

Plot:
The story of J.M. Barrie's friendship with a family who inspired him to create Peter Pan.

Specifications:
Format                           : Matroska
Format version                   : Version 2
Overall bit rate                 : 12.7 Mbps

Video
Format                           : AVC
Format/Info                      : Advanced Video Codec
Format profile                   : High@L4.1
Format settings, CABAC           : Yes
Format settings, ReFrames        : 5 frames
Muxing mode                      : Header stripping
Codec ID                         : V_MPEG4/ISO/AVC
Bit rate                         : 10.8 Mbps
Width                            : 1 920 pixels
Height                           : 816 pixels
Display aspect ratio             : 2.35:1
Frame rate                       : 23.976 fps

Audio 1
Format                           : DTS
Format/Info                      : Digital Theater Systems
Muxing mode                      : Header stripping
Codec ID                         : A_DTS
Bit rate mode                    : Constant
Bit rate                         : 1 510 Kbps
Channel(s)                       : 6 channels
Channel positions                : Front: L C R, Side: L R, LFE
Sampling rate                    : 48.0 KHz
Bit depth                        : 24 bits
Compression mode                 : Lossy
Stream size                      : 1.07 GiB (12%)
Title                            : English
Language                         : English

Audio 2
Format                           : AC-3
Format/Info                      : Audio Coding 3
Mode extension                   : CM (complete main)
Muxing mode                      : Header stripping
Codec ID                         : A_AC3
Bit rate mode                    : Constant
Bit rate                         : 384 Kbps
Channel(s)                       : 6 channels
Channel positions                : Front: L C R, Side: L R, LFE
Sampling rate                    : 48.0 KHz
Bit depth                        : 16 bits
Compression mode                 : Lossy
Delay relative to video          : 1s 0ms
Stream size                      : 278 MiB (3%)
Title                            : Polish
Language                         : Polish

Text 1
Format                           : UTF-8
Codec ID                         : S_TEXT/UTF8
Codec ID/Info                    : UTF-8 Plain Text
Title                            : English
Language                         : English

Text 2
Format                           : UTF-8
Codec ID                         : S_TEXT/UTF8
Codec ID/Info                    : UTF-8 Plain Text
Title                            : Polish
Language                         : Polish